<?xml version="1.0" encoding="UTF-8" standalone="no"?>
<svg
   xmlns:dc="http://purl.org/dc/elements/1.1/"
   xmlns:cc="http://creativecommons.org/ns#"
   xmlns:rdf="http://www.w3.org/1999/02/22-rdf-syntax-ns#"
   xmlns:svg="http://www.w3.org/2000/svg"
   xmlns="http://www.w3.org/2000/svg"
   viewBox="0 0 1365.3333 1365.3333"
   height="1365.3333"
   width="1365.3333"
   xml:space="preserve"
   id="svg2"
   version="1.1"><metadata
     id="metadata8"><rdf:RDF><cc:Work
         rdf:about=""><dc:format>image/svg+xml</dc:format><dc:type
           rdf:resource="http://purl.org/dc/dcmitype/StillImage" /></cc:Work></rdf:RDF></metadata><defs
     id="defs6" /><g
     transform="matrix(1.3333333,0,0,-1.3333333,0,1365.3333)"
     id="g10"><g
       transform="scale(0.1)"
       id="g12"><path
         id="path14"
         style="fill:#ffffff;fill-opacity:1;fill-rule:nonzero;stroke:none"
         d="m 1991.67,8647.71 c -21.48,-206.75 -41.28,-405.25 -62.94,-603.52 -39.14,-357.98 13.98,-706.46 146.19,-1036.51 126.16,-315.1 284.33,-617.35 425.82,-926.39 282.9,-618.42 573.17,-1233.74 841.29,-1858.51 101.04,-235.4 157.73,-491.3 218.65,-741.72 52.7,-216.5 -7.3,-421.26 -122.67,-607.65 -300.2,-484.98 -668.76,-911.13 -1111.3,-1271.83 -41.76,-34.1 -89.06,-61.99 -136.06,-88.7 -47.42,-26.94 -76.84,-10.79 -76.18,45.01 0.3,26.58 6.98,53.35 13.32,79.45 75.02,308.3 159.25,614.7 223.26,925.27 61.17,296.85 2.27,585.59 -122.99,857.29 -298.35,646.95 -603.67,1290.72 -905.27,1936.24 -207.67,444.53 -397.618,895.51 -532.099,1369.1 -109.5,385.71 -59.937,737.38 168.489,1069.73 231.7,337.12 505.21,632.33 829.11,881.17 33.14,25.46 69.32,47.69 106.43,66.92 73.85,38.2 98.77,22.32 98.65,-59.41 -0.06,-14.75 -1.4,-29.59 -1.7,-35.94" /><path
         id="path16"
         style="fill:#ffffff;fill-opacity:1;fill-rule:nonzero;stroke:none"
         d="m 7924.72,8647.71 c -21.53,-206.75 -41.25,-405.25 -62.95,-603.52 -39.11,-357.98 14,-706.46 146.22,-1036.51 126.13,-315.1 284.28,-617.35 425.79,-926.39 282.9,-618.42 573.14,-1233.74 841.33,-1858.51 101.03,-235.4 157.72,-491.3 218.64,-741.72 52.64,-216.5 -7.32,-421.26 -122.68,-607.65 -300.25,-484.98 -668.76,-911.13 -1111.29,-1271.83 -41.79,-34.1 -89.06,-61.99 -136.09,-88.7 -47.45,-26.94 -76.83,-10.79 -76.18,45.01 0.3,26.58 6.97,53.35 13.29,79.45 75.05,308.3 159.28,614.7 223.3,925.27 61.15,296.85 2.27,585.59 -122.98,857.29 -298.41,646.95 -603.72,1290.72 -905.28,1936.24 -207.69,444.53 -397.6,895.51 -532.08,1369.1 -109.5,385.71 -59.96,737.38 168.46,1069.73 231.71,337.12 505.25,632.33 829.11,881.17 33.14,25.46 69.32,47.69 106.46,66.92 73.85,38.2 98.77,22.32 98.66,-59.41 -0.12,-14.75 -1.44,-29.59 -1.73,-35.94" /><path
         id="path18"
         style="fill:#ffffff;fill-opacity:1;fill-rule:nonzero;stroke:none"
         d="m 4878.7,9614.34 c -26.17,-247.08 -53.83,-660.89 -83.12,-907.56 -46.53,-391.18 68.1,-769.76 171.94,-1146.44 107.12,-388.77 305.7,-737.36 473.45,-1099.88 412.44,-891.37 826.42,-1782.2 1224.79,-2679.91 139.9,-315.22 151.65,-452.08 196.95,-798.06 31.54,-240.94 -85.18,-619.81 -207.2,-824.51 -388.23,-651.42 -810.99,-1080.01 -1399.75,-1558.019 -46.01,-37.371 -98.59,-68.371 -151.64,-95.309 -59.88,-30.402 -98.87,-10.011 -97.28,60.918 0.74,33.86 8.61,68.071 16.77,101.219 95.71,387.341 225.3,593.001 308.33,982.961 81.43,382.69 3.76,859.15 -155.57,1209.71 -273.67,601.94 -559.2,1198.51 -838.71,1797.82 -308.63,661.72 -635.85,1315.52 -869.94,2009.49 -94.18,279.21 -186.61,560.03 -207.41,855.78 -12.4,175.91 35.44,511.39 118.29,667.06 313.67,589.75 763.25,1106.47 1307.95,1504.3 9.66,7.04 20.15,12.64 31.45,16.37 23.3,7.81 47.12,14.42 70.99,20.71 37.52,9.87 75.56,-14.54 82.08,-52.81 5.76,-33.63 9.66,-63.43 7.63,-63.84" /></g></g></svg>