<?xml version="1.0" encoding="utf-8"?>
<!-- Generator: Adobe Illustrator 16.0.0, SVG Export Plug-In . SVG Version: 6.00 Build 0)  -->
<!DOCTYPE svg PUBLIC "-//W3C//DTD SVG 1.0//EN" "http://www.w3.org/TR/2001/REC-SVG-20010904/DTD/svg10.dtd">
<svg version="1.0" xmlns="http://www.w3.org/2000/svg" xmlns:xlink="http://www.w3.org/1999/xlink" x="0px" y="0px" width="500px"
	 height="500px" viewBox="0 0 500 500" enable-background="new 0 0 500 500" xml:space="preserve">
<g id="sense_chat" display="none">
	<g display="inline">
		<ellipse fill="#7D7FFD" cx="251.341" cy="229.639" rx="181.774" ry="160.433"/>
		<polyline fill="#7D7FFD" points="177.013,363.577 151.99,447.473 229.999,382.712 		"/>
		<polygon fill="#FFFFFF" points="282.407,117.683 186.242,198.148 242.175,264.876 223.53,338.472 318.715,258.006 
			263.763,190.298 		"/>
	</g>
</g>
<g id="dfuse" display="none">
	<path display="inline" fill="#FF4660" d="M249.902,404c85.943,0,155.61-70.094,155.61-153.75
		c0-83.658-67.308-152.623-153.26-152.623C166.317,97.634,99,164.313,99,247.98V404H249.902z"/>
</g>
<g id="Layer_4">
	<g>
		<path fill-rule="evenodd" clip-rule="evenodd" fill="#772BAD" d="M91.987,356.405c1.327-7.386,4.472-13.972,8.809-20.034
			c2.108,0.452,3.259,2.187,4.637,3.562c27.846,27.809,55.68,55.628,83.463,83.499c1.529,1.534,3.939,2.697,3.482,5.551
			c-9.233,1.601-18.489,2.646-27.85,1.138c-23.319-23.154-46.487-46.461-69.755-69.667
			C93.578,359.262,92.716,357.892,91.987,356.405z"/>
		<path fill-rule="evenodd" clip-rule="evenodd" fill="#7B27AB" d="M91.987,356.405c5.678,5.539,11.408,11.027,17.024,16.627
			c17.462,17.41,34.887,34.854,52.302,52.311c1.362,1.365,3.23,2.458,3.215,4.778c-28.12-0.558-50.741-11.84-67.088-34.885
			C89.007,383.351,88.384,370.111,91.987,356.405z"/>
		<path fill-rule="evenodd" clip-rule="evenodd" fill="#762EAF" d="M192.377,428.983c-1.203-1.357-2.339-2.781-3.619-4.062
			c-28.011-28.037-56.043-56.055-84.051-84.096c-1.394-1.396-2.612-2.966-3.912-4.454c1.565-2.614,3.233-5.144,5.745-6.978
			c1.549-0.698,2.545,0.349,3.467,1.238c9.53,9.185,18.577,18.86,28.319,27.831c0.477,0.439,0.735,1.096,1.048,1.679
			c2.965,9.154,10.136,13.896,18.385,17.505c13.967,15.354,29.178,29.485,43.646,44.347c1.316,1.352,3.24,2.45,2.884,4.842
			C200.389,427.934,196.491,429.056,192.377,428.983z"/>
		<path fill-rule="evenodd" clip-rule="evenodd" fill="#7233B1" d="M235.123,413.885c-5.885,3.867-12.107,7.041-18.853,9.131
			c-5.451-7.084-12.292-12.832-18.47-19.218c-5.726-5.92-11.675-11.621-17.422-17.521c-1.795-1.841-3.996-3.622-3.212-6.754
			c5.688-2.531,11.829-3.773,17.557-6.188c1.793-0.136,3.13,0.681,4.302,1.968c10.636,11.68,22.241,22.405,33.229,33.738
			C233.567,410.396,235.478,411.499,235.123,413.885z"/>
		<path fill-rule="evenodd" clip-rule="evenodd" fill="#6F37B3" d="M235.123,413.885c-11.228-11.338-22.379-22.753-33.755-33.94
			c-2.014-1.98-2.746-5.482-6.305-5.786c0.006-0.165-0.058-0.405,0.027-0.48c7.251-6.44,14.188-13.252,22.157-18.854
			c1.356,0.162,2.186,0.924,2.54,2.227c-0.035,2.768-2.453,3.945-3.844,5.823c-0.816,1.102-3.123,1.7-1.564,3.805
			c11.49,10.597,22.214,21.951,33.295,32.945c1.259,1.25,2.681,2.611,1.5,4.713C244.921,408.155,240.196,411.275,235.123,413.885z"
			/>
		<path fill-rule="evenodd" clip-rule="evenodd" fill="#4C64CA" d="M346.607,266.751c-4.893,1.925-9.75,3.962-14.923,5.063
			c-10.831-10.406-21.251-21.227-31.945-31.771c-3.946-3.891-7.551-8.186-12.585-10.823c-0.2-4.928,0.437-9.752,1.746-14.495
			c1.439-3.661,3.665-3.963,6.376-1.35c9.983,9.627,19.458,19.772,29.613,29.22c2.022,1.881,0.436,4.503,1.982,6.307
			c1.581-0.408,3.162-0.817,4.742-1.226c4.499,4.23,8.774,8.688,13.025,13.159C346.111,262.384,348.089,264.079,346.607,266.751z"/>
		<path fill-rule="evenodd" clip-rule="evenodd" fill="#4272D1" d="M258.044,145.445c0-8.55,0-17.1,0-26.412
			c12.86,7.726,25.398,15.259,37.937,22.792c1.896,0.167,3.419,1.023,4.759,2.367c10.365,10.397,20.793,20.732,31.132,31.156
			c-0.165,5.636,0.211,11.306-1.083,16.87c-2.14,1.434-3.431-0.267-4.642-1.452c-10.707-10.47-21.13-21.229-31.944-31.597
			c-0.322-0.765-0.645-1.607-0.489-2.39c1.639-8.29-2.75-12.554-9.69-15.836c-7.251-3.429-13.639-8.473-20.764-12.136
			c-1.782,2.355-0.571,5.031-0.862,7.525c-0.392,3.353,0.743,6.861-1.03,10.084C259.843,147.51,258.87,146.726,258.044,145.445z"/>
		<path fill-rule="evenodd" clip-rule="evenodd" fill="#6C3BB5" d="M249.172,404.336c-0.267-0.768-0.314-1.755-0.832-2.269
			c-11.71-11.65-22.922-23.806-35.257-34.822c3.743-4.669,8.252-8.312,13.922-10.409c3.56,1.922,5.914,5.191,8.716,7.942
			c7.76,7.618,15.434,15.325,23.066,23.07c1.427,1.448,3.573,2.582,3.215,5.188C258.411,397.581,253.963,401.153,249.172,404.336z"
			/>
		<path fill-rule="evenodd" clip-rule="evenodd" fill="#752FAF" d="M177.43,380.144c0.854,2.405,2.555,4.173,4.322,5.933
			c10.87,10.825,21.723,21.667,32.529,32.557c1.141,1.15,3.36,2.01,1.989,4.383c-3.773,1.962-7.823,3.059-11.979,3.819
			c-12.78-12.89-25.542-25.799-38.353-38.659c-3.027-3.039-6.083-6.032-8.379-9.692c0.36-0.322,0.699-0.823,1.205-0.747
			C164.969,378.672,171.395,377.903,177.43,380.144z"/>
		<path fill-rule="evenodd" clip-rule="evenodd" fill="#693FB7" d="M262.003,393.037c-10.394-10.515-20.796-21.02-31.171-31.554
			c-1.369-1.391-3.048-2.544-3.762-4.492c2.048-4.932,6.163-7.919,10.268-10.919c1.643,0.023,2.694,1.116,3.735,2.151
			c10.137,10.073,20.233,20.189,30.326,30.308c0.815,0.817,1.592,1.668,1.855,2.849C269.99,385.735,266.568,389.938,262.003,393.037
			z"/>
		<path fill-rule="evenodd" clip-rule="evenodd" fill="#5060C8" d="M288.034,230.025c2.048-1.573,3.256-0.114,4.574,1.207
			c12.016,12.041,24.039,24.075,36.092,36.078c1.324,1.317,2.215,2.854,2.984,4.505c-0.146,0.07-0.283,0.176-0.438,0.208
			c-6.019,1.257-10.035,4.401-10.389,11.005c-1.882-4.365-5.432-7.371-8.675-10.622c-5.724-5.739-11.594-11.34-17.142-17.244
			c-3.279-3.49-7.227-6.099-10.778-9.227c-0.109-4.17,1.138-8.166,1.552-12.269C285.965,232.168,286.522,230.766,288.034,230.025z"
			/>
		<path fill-rule="evenodd" clip-rule="evenodd" fill="#476CCE" d="M329.7,208.135c-0.024,7.759-0.636,15.47-1.889,23.128
			c-1.595-3.492-4.123-6.21-6.861-8.86c-6.66-6.446-13.132-13.088-19.705-19.625c-3.037-3.019-5.75-6.494-10.226-7.601
			c0.178-6.418-0.287-12.893,1.771-19.13c3.01-2.6,4.905,0.044,6.612,1.727C309.586,187.809,319.805,197.811,329.7,208.135z"/>
		<path fill-rule="evenodd" clip-rule="evenodd" fill="#4A68CC" d="M292.03,196.195c1.531-2.204,3.054-1.213,4.413,0.124
			c10.104,9.929,20.16,19.907,30.276,29.824c1.569,1.538,0.679,3.427,1.091,5.119c0.531,5.925-1.611,11.708-0.938,17.64
			c-0.901-4.239-4.313-6.589-7.105-9.391c-8.374-8.407-16.787-16.777-25.158-25.189c-1.488-1.496-2.853-3.049-4.494-0.216
			C288.212,207.864,288.654,201.873,292.03,196.195z"/>
		<path fill-rule="evenodd" clip-rule="evenodd" fill="#397ED7" d="M329.917,107.712c-4.155,2.994-8.543,5.595-13.182,7.768
			c-3.306-1.074-5.121-3.966-7.429-6.215c-4.786-4.664-9.521-9.381-14.227-14.134c-1.29-3.138,0.477-6.73-1.474-9.76
			c-8.921-6.047-18.545-10.912-27.651-16.632c-2.871-1.803-3.544-0.868-3.761,2.197c-0.162,2.301,1.738,5.622-2.31,6.667
			c-0.422-5.498-0.747-10.987,0.164-16.463c5.604-3.903,11.527-7.263,17.597-10.376c0.873-0.485,1.303,0.048,1.671,0.724
			c0.145,2.393-1.913,2.842-3.394,3.728c-2.123,1.271-4.179,2.662-6.377,3.8c-2.742,1.42-3.592,2.693-0.253,4.578
			c7.899,4.459,15.731,9.046,23.431,13.843c2.664,1.66,5.353,1.137,8.107,1.065C310.428,88.336,320.273,97.924,329.917,107.712z"/>
		<path fill-rule="evenodd" clip-rule="evenodd" fill="#535CC6" d="M285.176,246.941c2.763-0.976,4.294,1.215,5.768,2.654
			c9.345,9.127,18.487,18.46,27.803,27.615c1.741,1.712,2.089,3.632,2.11,5.816c-0.326,4.451-1.334,8.745-2.967,12.896
			c-1.421,0.016-2.566-0.679-3.509-1.607c-11.131-10.961-22.358-21.828-33.094-33.195
			C281.939,256.217,281.525,251.021,285.176,246.941z"/>
		<path fill-rule="evenodd" clip-rule="evenodd" fill="#6643B9" d="M273.254,381.38c-8.198-6.703-15.076-14.769-22.699-22.065
			c-4.413-4.226-8.711-8.57-13.062-12.861c0.39-3.51,5.483-9.563,9.52-11.319c2.132,0.731,3.417,2.524,4.917,4.019
			c8.871,8.825,17.743,17.65,26.525,26.565c1.503,1.525,3.936,2.86,2.547,5.759C278.915,375.165,276.319,378.456,273.254,381.38z"/>
		<path fill-rule="evenodd" clip-rule="evenodd" fill="#5854C2" d="M313.782,309.64c-1.438,5.273-3.112,10.457-5.829,15.242
			c-0.974-0.284-1.79-0.833-2.498-1.541c-10.951-10.95-21.972-21.829-32.838-32.868c0.37-5.038,2.528-9.441,4.894-13.773
			c2.07-1.432,3.837-0.502,5.316,0.925c10.438,10.063,20.506,20.499,30.859,30.646C314.046,308.623,314.008,309.163,313.782,309.64z
			"/>
		<path fill-rule="evenodd" clip-rule="evenodd" fill="#5B50C0" d="M273.143,290.725c1.271,0.015,2.12,0.781,2.951,1.615
			c10.271,10.292,20.553,20.574,30.811,30.88c0.45,0.452,0.704,1.103,1.049,1.661c-1.896,4.269-3.056,8.881-5.931,12.691
			c-2.045,0.771-3.063-0.858-4.164-1.946c-10.484-10.366-20.863-20.837-31.33-31.227C267.611,299.3,268.542,294.123,273.143,290.725
			z"/>
		<path fill-rule="evenodd" clip-rule="evenodd" fill="#3682D9" d="M329.917,107.712c-1.422-0.021-2.44-0.79-3.397-1.75
			c-8.116-8.137-16.26-16.246-24.344-24.415c-0.642-0.647-0.895-1.68-1.328-2.533c4.359-5.166,9.852-8.438,16.461-9.862
			c6.307,3.86,10.555,9.954,15.986,14.766c0.618,0.547,0.882,1.402,0.848,2.267c-0.255,6.418,0.6,12.863-0.467,19.261
			C332.423,106.202,331.17,106.957,329.917,107.712z"/>
		<path fill-rule="evenodd" clip-rule="evenodd" fill="#5558C4" d="M313.782,309.64c-10.1-9.937-20.197-19.876-30.303-29.806
			c-1.504-1.478-2.774-3.395-5.33-3.042c-0.966-5.585,0.501-10.522,3.975-14.926c2.268,0.165,3.309,2.063,4.686,3.414
			c10.385,10.188,20.726,20.423,31.08,30.642C316.491,300.486,316.17,305.372,313.782,309.64z"/>
		<path fill-rule="evenodd" clip-rule="evenodd" fill="#6149BC" d="M296.07,348.492c-2.187,4.662-4.892,9.001-8.118,13.016
			c-11.803-11.571-23.343-23.406-35.143-34.983c1.27-4.471,3.618-8.271,7.092-11.371c2.1-0.642,3.464,0.654,4.746,1.928
			C275.152,327.521,285.66,337.957,296.07,348.492z"/>
		<path fill-rule="evenodd" clip-rule="evenodd" fill="#5E4DBE" d="M296.07,348.492c-2.29-0.02-3.427-1.818-4.801-3.187
			c-8.902-8.86-17.76-17.765-26.669-26.618c-1.254-1.247-2.24-2.951-4.313-3.085c0.562-4.572,2.16-8.555,6.292-11.104
			c2.441,0.063,3.677,1.973,5.191,3.428c10.179,9.785,19.594,20.35,30.252,29.646C300.593,341.515,298.538,345.115,296.07,348.492z"
			/>
		<path fill-rule="evenodd" clip-rule="evenodd" fill="#446FD0" d="M329.7,208.135c-2.301-0.035-3.369-1.913-4.732-3.266
			c-8.545-8.483-17.06-16.997-25.544-25.54c-1.646-1.657-3.349-3.169-5.549-4.029c-2.285-5.463-2.611-10.809,0.956-15.92
			c2.222,0.836,3.925,2.356,5.575,4.017c8.507,8.564,17.043,17.099,25.607,25.605c1.367,1.358,2.455,3.229,4.774,3.214
			C330.797,197.548,330.918,202.887,329.7,208.135z"/>
		<path fill-rule="evenodd" clip-rule="evenodd" fill="#3F76D3" d="M331.871,175.347c-2.292-0.004-3.416-1.814-4.785-3.176
			c-8.881-8.837-17.713-17.722-26.604-26.548c-1.39-1.379-2.996-2.539-4.502-3.799c5.29-1.118,8.719-5.694,13.706-7.374
			c2.214-0.603,3.295,1.129,4.513,2.338c6.229,6.177,12.481,12.33,18.602,18.614C332.81,162.065,333.021,168.738,331.871,175.347z"
			/>
		<path fill-rule="evenodd" clip-rule="evenodd" fill="#7233B1" d="M116.419,320.385c4.782-4.156,10.105-7.444,15.931-9.924
			c2.162-0.527,3.354,1.025,4.612,2.261c4.951,4.86,9.853,9.771,14.724,14.713c1.637,1.66,3.271,3.362,2.689,6.031
			c-3.661,4.42-8.184,7.907-12.571,11.549c-1.456,0.025-2.502-0.812-3.449-1.747c-7.08-6.986-14.163-13.97-21.075-21.123
			C116.813,321.661,116.543,321.052,116.419,320.385z"/>
		<path fill-rule="evenodd" clip-rule="evenodd" fill="#3683DA" d="M380.456,167.275c12.612,2.887,25.385,5.216,37.434,10.146
			c8.17,3.342,15.955,7.431,21.861,14.2c5.662,6.49,9.471,13.608,5.497,22.532c-2.073,1.341-3.372-0.227-4.579-1.404
			c-2.88-2.811-5.938-5.453-8.486-8.594c0.285-5.735-3.01-9.552-7.002-12.961c-11.145-9.516-24.756-14.029-38.238-18.796
			c-2.159-0.764-4.33-1.5-6.495-2.248C379.619,169.189,379.6,168.231,380.456,167.275z"/>
		<path fill-rule="evenodd" clip-rule="evenodd" fill="#6346BB" d="M253.22,326.545c1.478,0.001,2.363,1.005,3.294,1.938
			c9.767,9.767,19.531,19.534,29.302,29.298c1.054,1.052,2.148,2.069,2.137,3.728c-1.915,3.603-4.208,6.942-6.949,9.969
			c-0.044-2.283-1.85-3.412-3.217-4.786c-9.093-9.135-18.23-18.226-27.316-27.368c-1.266-1.274-2.332-2.746-3.49-4.128
			C247.021,330.841,249.691,328.383,253.22,326.545z"/>
		<path fill-rule="evenodd" clip-rule="evenodd" fill="#6F37B3" d="M153.554,333.383c0.045-1.178,0.021-2.352-0.905-3.24
			c-6.799-6.526-12.911-13.762-20.298-19.682c5.271-3.392,10.964-5.893,16.848-7.996c0.673-0.261,1.342-0.145,1.809,0.337
			c6.145,6.324,12.535,12.408,18.597,18.813c0.79,0.835,1.428,1.808,1.16,3.081C165.545,328.614,160.156,332.2,153.554,333.383z"/>
		<path fill-rule="evenodd" clip-rule="evenodd" fill="#752FAF" d="M116.419,320.385c7.383,5.908,13.43,13.196,20.306,19.629
			c1.677,1.568,2.982,3.576,5.199,4.529c-0.336,5.449-1.312,10.76-3.414,15.827c-10.657-10.325-21.313-20.65-31.97-30.977
			C109.413,325.931,112.398,322.589,116.419,320.385z"/>
		<path fill-rule="evenodd" clip-rule="evenodd" fill="#6C3BB5" d="M170.492,324.464c-7.098-7.333-14.195-14.665-21.293-21.999
			c5.432-3.091,11.303-5.106,17.216-7.018c7.375,5.341,13.252,12.23,19.389,18.845c0.885,0.954,1.339,2.282,0.781,3.687
			C181.819,321.625,176.821,324.698,170.492,324.464z"/>
		<path fill-rule="evenodd" clip-rule="evenodd" fill="#693FB7" d="M186.413,317.478c-3.142-5.926-8.801-9.574-13.083-14.469
			c-2.25-2.571-5.197-4.503-6.915-7.562c5.135-2.482,10.498-4.33,16.004-5.782c6.04,5.593,11.687,11.579,17.491,17.407
			c1.893,1.901,3.137,4.006,0.397,6.284c-2.876,1.575-5.844,2.964-8.901,4.141C189.779,318.123,188.067,319.152,186.413,317.478z"/>
		<path fill-rule="evenodd" clip-rule="evenodd" fill="#5E4DBE" d="M223.019,276.675c4.481-2.05,9.274-3.036,14.038-4.126
			c6.358,5.171,12.94,10.13,16.738,17.729c-0.715,9.203-4.462,17.404-8.425,25.536c-1.345,0.672-2.457,0.265-3.436-0.741
			c-1.737-4.579,2.09-7.985,2.575-12.104c0.207-1.759,1.922-3.896-1.318-4.673C236.011,291.512,227.964,285.54,223.019,276.675z"/>
		<path fill-rule="evenodd" clip-rule="evenodd" fill="#6643B9" d="M200.343,312.495c1.537-2.012,0.169-3.233-1.163-4.552
			c-4.659-4.608-9.291-9.243-13.9-13.899c-1.241-1.254-2.871-2.292-2.86-4.379c3.701-2,7.755-2.954,11.784-3.984
			c1.838-0.92,3.238,0.072,4.428,1.219c5.36,5.16,10.667,10.379,15.764,15.802c1.682,1.79,2.133,3.733-0.014,5.596
			C209.844,310.164,205.875,313.949,200.343,312.495z"/>
		<path fill-rule="evenodd" clip-rule="evenodd" fill="#6149BD" d="M223.019,276.675c6.708,7.019,13.415,14.037,20.122,21.056
			c-0.023,2.296-1.998,2.434-3.44,2.793c-3.335,0.832-6.471,2.434-9.969,2.626c-7.693-5.257-13.552-12.434-19.853-19.143
			c-0.764-0.813-1.21-1.996-0.575-3.214C213.733,278.946,218.288,277.517,223.019,276.675z"/>
		<path fill-rule="evenodd" clip-rule="evenodd" fill="#6446BB" d="M209.304,280.793c2.945,5.902,8.523,9.441,12.753,14.192
			c2.287,2.569,4.754,4.978,7.14,7.459c-4.253,3.813-9.041,6.051-14.923,5.047c0.541-1.022,1.261-2.041,0.146-3.135
			c-6.251-6.132-12.497-12.268-18.781-18.364c-0.298-0.289-0.948-0.216-1.434-0.312C199.056,283.491,204.105,281.91,209.304,280.793
			z"/>
		<path fill-rule="evenodd" clip-rule="evenodd" fill="#4A68CC" d="M346.607,266.751c-0.46-3.831-3.695-5.679-5.863-8.312
			c-2.993-3.632-7.696-5.815-9.13-10.762c4.149-1.739,8.444-2.979,12.87-3.772c1.593-0.927,2.938-0.083,3.976,0.883
			c4.648,4.329,9.175,8.79,13.452,13.49c0.639,0.702,1.2,1.582,0.629,2.647C357.433,263.418,352.124,265.369,346.607,266.751z"/>
		<path fill-rule="evenodd" clip-rule="evenodd" fill="#476CCE" d="M362.541,260.926c-5.688-6.023-10.69-12.776-18.057-17.021
			c5.507-2.207,11.179-3.866,16.972-5.123c5.849,4.912,12.545,9.075,14.982,16.994C372.087,258.251,367.454,259.966,362.541,260.926
			z"/>
		<path fill-rule="evenodd" clip-rule="evenodd" fill="#3C7AD5" d="M332.801,155.402c-2.305,0.031-3.357-1.851-4.757-3.163
			c-6.215-5.831-11.714-12.4-18.357-17.789c3.032-2.347,6.18-4.507,9.718-6.039c1.124-0.542,2.226-0.485,3.297,0.138
			c0.859,0.5,1.511,1.296,2.333,1.809c9.53,5.935,8.917,15.062,7.741,24.377C332.987,154.95,332.996,155.172,332.801,155.402z"/>
		<path fill-rule="evenodd" clip-rule="evenodd" fill="#5C50C0" d="M253.103,289.808c-4.692-6.364-11.44-10.814-16.046-17.259
			c3.093-0.961,6.125-2.349,9.291-2.788c5.416-0.752,7.9-3.593,7.84-8.917c1.027-2.316-0.214-4.882,0.79-7.201
			c0.05-1.236,0.099-2.474,0.147-3.711c1.03-0.826,2.093-0.88,3.191-0.137c1.337,1.755,0.976,3.833,1.109,5.817
			c0.029,1.404-0.128,2.792-0.408,4.167c-0.74,2.119-0.639,4.31-0.527,6.502c0.269,6.798-1.102,13.371-2.783,19.889
			C255.326,287.646,255.34,289.584,253.103,289.808z"/>
		<path fill-rule="evenodd" clip-rule="evenodd" fill="#3687DB" d="M333.676,105.447c-0.095-6.567,1.555-13.857-0.783-19.494
			c-2.259-5.446-8.614-9.202-13.202-13.667c-0.932-0.907-2.01-1.664-3.021-2.49c1.105-3.604,4.677-4.277,7.348-5.831
			c2.464-1.435,3.02-3.069,2.324-5.537c0.376-0.662,0.807-1.19,1.661-0.687c4.895,1.443,6.905,4.292,6.652,9.779
			c-0.509,11.075-0.116,22.188-0.192,33.286C334.452,102.349,335.261,104.133,333.676,105.447z"/>
		<path fill-rule="evenodd" clip-rule="evenodd" fill="#3B7BD6" d="M295.963,95.703c3.506,0.765,5.122,3.896,7.415,6.107
			c4.585,4.419,8.919,9.098,13.357,13.67c-3.1,2.839-7.254,3.875-10.636,6.23c-5.818-1.184-11.677-7.583-11.498-13.175
			C294.737,104.252,293.202,99.724,295.963,95.703z"/>
		<path fill-rule="evenodd" clip-rule="evenodd" fill="#3C7AD5" d="M402.334,225.078c4.046-2.562,8.604-3.997,12.952-5.893
			c4.885,3.715,10.458,6.828,11.862,13.583c-3.381,2.554-7.03,4.631-10.977,6.182c-0.236,0.258-0.633,0.561-0.804,0.425
			C410.271,235.299,404.788,231.564,402.334,225.078z"/>
		<path fill-rule="evenodd" clip-rule="evenodd" fill="#3A7DD7" d="M427.148,232.768c-2.734-5.593-8.401-8.625-11.862-13.583
			c3.693-2.332,7.388-4.663,11.081-6.995c5.649,2.372,9.828,6.189,11.89,12.089C435.124,227.854,431.269,230.484,427.148,232.768z"
			/>
		<path fill-rule="evenodd" clip-rule="evenodd" fill="#4470D0" d="M376.438,255.776c-3.818-6.701-10.591-10.798-14.982-16.994
			c3.535-1.666,7.282-2.676,11.063-3.584c3.637,2.374,6.066,5.996,9.166,8.93c2.512,2.376,5.042,4.707,7.779,6.816
			C385.299,253.03,381.1,255.026,376.438,255.776z"/>
		<path fill-rule="evenodd" clip-rule="evenodd" fill="#3F77D4" d="M402.334,225.078c4.313,4.922,8.737,9.735,13.838,13.872
			c-3.641,2.57-7.737,4.209-11.858,5.801c-5.38-4.673-10.193-9.928-15.288-14.896C393.326,227.884,397.668,226.03,402.334,225.078z"
			/>
		<path fill-rule="evenodd" clip-rule="evenodd" fill="#4174D2" d="M389.025,229.854c6.448,3.579,11.226,8.871,15.288,14.896
			c-2.982,1.303-5.967,2.604-8.951,3.907c-5.344-5.001-11.058-9.647-15.201-15.802C382.965,231.409,385.912,230.386,389.025,229.854
			z"/>
		<path fill-rule="evenodd" clip-rule="evenodd" fill="#4272D1" d="M380.161,232.855c5.489,4.86,11.255,9.456,15.201,15.802
			c-1.966,0.762-3.932,1.525-5.897,2.287c-1.153-0.038-2.401,0.093-3.268-0.843c-4.581-4.947-10.285-8.867-13.678-14.902
			C375.066,234.418,377.614,233.637,380.161,232.855z"/>
		<path fill-rule="evenodd" clip-rule="evenodd" fill="#3880D8" d="M438.257,224.279c-3.452-4.533-7.593-8.387-11.89-12.089
			c2.281-2.431,4.458-4.937,5.815-8.035c3.601,0.683,5.005,4.101,7.561,6.086c1.782,1.383,2.835,3.779,5.505,3.913
			C444.167,218.392,441.563,221.578,438.257,224.279z"/>
		<path fill-rule="evenodd" clip-rule="evenodd" fill="#3B7DD6" d="M332.775,154.735c-0.031-2.474,0.025-4.953-0.119-7.419
			c-0.163-2.764,1.319-6.427-0.67-8.12c-4.202-3.575-6.958-8.903-12.581-10.785c4.641-3.043,9.283-6.086,14.826-9.721
			C333.39,131.431,334.484,143.118,332.775,154.735z"/>
		<path fill-rule="evenodd" clip-rule="evenodd" fill="#3E79D5" d="M295.963,95.703c-0.032,2.133,0.265,4.333-0.151,6.387
			c-1.906,9.403,3.448,14.873,10.288,19.62c-2.487,1.575-4.83,3.476-7.494,4.65c-4.216,1.858-6.563-2.253-9.773-3.651
			c-0.372-0.564-0.289-1.051,0.247-1.46c3.56-0.211,4.46-2.244,4.393-5.575c-0.172-8.547-0.087-17.101-0.038-25.652
			c0.012-2.111-0.264-4.313,1.194-6.159C297.268,87.563,295.129,91.801,295.963,95.703z"/>
		<path fill-rule="evenodd" clip-rule="evenodd" fill="#5166CB" d="M257.949,163.032c-0.003-0.886-0.006-1.772-0.009-2.658
			c1.137-0.81,2.279-0.927,3.433-0.028c1.544,2.244,0.791,4.859,1.193,7.29c-0.271,11.214,0.696,22.448-0.533,33.649
			c-1.273,2.255-2.728,3.566-4.902,0.892c0.03-2.339,0.061-4.679,0.09-7.019c0.798-8.735,0.117-17.49,0.365-26.232
			C257.641,166.96,257.229,164.959,257.949,163.032z"/>
		<path fill-rule="evenodd" clip-rule="evenodd" fill="#3E8CDD" d="M328.003,57.741c-0.428,0.371-0.856,0.742-1.284,1.113
			c-2.413,0.917-4.068-0.78-5.874-1.783c-6.354-3.528-12.65-7.168-18.749-11.114c-3.672-2.376-6.964-2.436-10.514,0.06
			c-2.428,1.708-5.054,3.133-7.637,4.603c-1.513,0.861-3.009,2.188-5.011,1.243c-0.43-0.366-0.859-0.732-1.289-1.098
			c5.743-3.495,11.513-6.947,17.211-10.515c1.449-0.908,2.556-0.904,4.021-0.013C308.557,46.121,318.289,51.917,328.003,57.741z"/>
		<path fill-rule="evenodd" clip-rule="evenodd" fill="#5A5FC7" d="M258.035,249.949c-0.971-0.006-1.94-0.012-2.91-0.018
			c0.594-12.05,1.188-24.101,1.781-36.151c2.36,2.282,1.439,5.248,1.568,7.955c0.109,2.317-0.103,4.643,2.094,6.222
			c2.181,6.811,0.077,13.491-0.609,20.22C259.604,249.079,258.993,249.703,258.035,249.949z"/>
		<path fill-rule="evenodd" clip-rule="evenodd" fill="#4379D4" d="M260.049,61.141c0.498,5.538-1.058,11.189,0.919,16.646
			c1.707,1.529,1.429,3.613,1.467,5.561c0.083,4.304,0.288,8.632-0.04,12.912c-0.376,4.895,1.181,8.309,5.771,10.369
			c1.744,0.783,3.711,1.618,4.222,3.88c-0.168,0.967-0.552,1.645-1.714,1.276c-0.314-0.096-0.634-0.178-0.942-0.29
			c-8.226-2.997-11.763-8.255-10.757-17.527c1.01-9.296,0.179-18.787,0.267-28.192C259.255,64.236,258.494,62.452,260.049,61.141z"
			/>
		<path fill-rule="evenodd" clip-rule="evenodd" fill="#5563C9" d="M259.948,228.034c-2.544,0.199-2.94-1.311-2.914-3.415
			c0.048-3.611-0.075-7.225-0.128-10.839c0.075-3.869,0.149-7.736,0.225-11.604c1.236,0.832,2.471,1.029,3.701-0.012
			c1.065,0.713,1.461,1.822,1.531,2.992C262.832,212.914,262.744,220.62,259.948,228.034z"/>
		<path fill-rule="evenodd" clip-rule="evenodd" fill="#3D82D9" d="M380.456,167.275c-0.003,0.958-0.006,1.917-0.009,2.875
			c-6.612-1.635-13.225-3.27-19.837-4.904c-0.235-0.963,0.059-1.4,1.095-1.102C368.019,164.809,374.316,165.571,380.456,167.275z"/>
		<path fill-rule="evenodd" clip-rule="evenodd" fill="#4F81D7" d="M270.673,111.785c0.436-0.38,0.871-0.761,1.306-1.142
			c6.927,0.969,12.149,5.089,17.254,9.395c0.312,0.263,0.013,0.932-0.273,1.354c-0.042,0.439-0.085,0.878-0.127,1.317
			C282.779,119.069,276.727,115.427,270.673,111.785z"/>
		<path fill-rule="evenodd" clip-rule="evenodd" fill="#4C71D0" d="M260.904,160.399c-0.988-0.008-1.976-0.017-2.964-0.026
			c0.034-4.976,0.069-9.952,0.104-14.928c0.968,0.324,1.936,0.647,2.903,0.971C263.245,151.084,263.312,155.746,260.904,160.399z"/>
		<path fill-rule="evenodd" clip-rule="evenodd" fill="#5470CF" d="M257.949,163.032c0.035,9.642,0.072,19.283,0.104,28.925
			c0.003,1.136,0.123,2.311-0.833,3.202C257.299,184.446,256.755,173.719,257.949,163.032z"/>
		<path fill-rule="evenodd" clip-rule="evenodd" fill="#7FA9E4" d="M361.705,164.144c-0.365,0.367-0.73,0.734-1.095,1.102
			c-1.74,0.307-3.113-0.473-5.009-1.449C358.091,163.142,359.944,162.994,361.705,164.144z"/>
		<path fill-rule="evenodd" clip-rule="evenodd" fill="#5E5CC5" d="M254.978,253.643c-0.152,2.413,0.91,4.959-0.79,7.201
			C254.186,258.414,253.875,255.951,254.978,253.643z"/>
		<path fill-rule="evenodd" clip-rule="evenodd" fill="#FEFEFE" d="M214.273,307.491c4.975-1.683,9.949-3.364,14.923-5.047
			c4.702-1.413,9.485-2.585,13.944-4.714c1.216-0.163,2.433-0.327,3.858-0.52c-0.876,6.195-3.496,11.589-5.315,17.224
			c0.564,1.492-0.168,2.756-0.705,4.058c-4.575,9.825-9.826,19.267-16.054,28.15c-2.712,2.827-4.215,6.794-8.045,8.572
			c-6.726,6.943-13.816,13.468-21.817,18.943c-5.596,2.825-11.484,4.79-17.633,5.985c-6.693,0.274-13.334-0.073-19.872-1.66
			c-8.9-3.354-16.475-8.104-19.048-18.113c-0.158-5.555,1.005-10.826,3.414-15.827c3.199-4.427,7.428-7.779,11.63-11.16
			c5.646-2.973,11.292-5.946,16.938-8.919c5.449-2.003,10.881-4.049,15.921-6.986c5.028-0.586,9.241-3.448,13.93-4.982
			C204.986,310.826,209.63,309.159,214.273,307.491z"/>
		<path fill-rule="evenodd" clip-rule="evenodd" fill="#FEFEFE" d="M259.948,228.034c0.469-8.617,1.259-17.224,0.884-25.87
			c0.407-11.499,0.72-23,0.312-34.506c0.944-12.221,0.104-24.463,0.459-36.69c0.047-1.62-1.072-3.747,1.314-4.794
			c8.605,6.419,17.837,11.87,27.282,16.891c3.768,2.003,5.345,4.238,4.741,8.425c-0.372,2.582-0.095,5.256-0.109,7.89
			c-0.921,5.271-1.1,10.585-0.956,15.92c-1.23,6.911-1.331,13.921-1.846,20.896c-0.639,5.97-1.277,11.94-1.915,17.911
			c-0.693,5.306-1.387,10.613-2.08,15.919c-0.953,5.639-1.906,11.277-2.858,16.916c-1.018,4.975-2.035,9.95-3.052,14.925
			c-1.324,4.976-2.649,9.95-3.975,14.926c-1.669,4.644-3.338,9.288-5.007,13.933c-2.188,4.591-4.376,9.184-6.563,13.774
			c-2.098,3.701-4.195,7.402-6.292,11.104c-2.355,3.647-4.712,7.295-7.067,10.942c-2.08,2.884-4.16,5.767-6.24,8.65
			c-3.162,3.753-6.324,7.505-9.486,11.258c-3.475,3.513-6.95,7.025-10.424,10.538c-4.662,3.418-9.324,6.836-13.986,10.254
			c-2.024-0.229-2.125-1.067-0.793-2.417c2.366-2.398,4.713-4.816,7.067-7.226c1.103-4.49,4.63-7.383,7.174-10.927
			c7.093-8.026,11.126-17.8,15.595-27.323c0.802-1.391,1.424-2.929,2.941-3.761c2.589-8.623,6.599-16.804,8.036-25.784
			c2.552-7.668,4.082-15.513,4.074-23.622c0.938-2.014-0.164-4.281,0.785-6.294c0.057-1.259,0.114-2.518,0.173-3.776
			c1.038-2.306-0.086-4.827,0.715-7.156C259.342,241.991,260.226,235.043,259.948,228.034z"/>
		<path fill-rule="evenodd" clip-rule="evenodd" fill="#703FB7" d="M227.498,347.55c-2.713,3.351-5.427,6.701-8.14,10.053
			c-0.462-1.173-1.305-1.95-2.477-2.388c2.136-3.129,4.242-6.282,7.035-8.892C225.53,345.504,226.716,345.938,227.498,347.55z"/>
		<path fill-rule="evenodd" clip-rule="evenodd" fill="#5470CF" d="M262.917,126.174c-1.792,1.592-0.904,3.704-0.97,5.569
			c-0.422,11.966,0.509,23.963-0.804,35.914c-0.079-2.417-0.157-4.837-0.238-7.257c0.014-4.661,0.028-9.322,0.043-13.983
			c0.025-5.695-0.021-11.392,0.14-17.084C261.12,128.158,259.873,125.781,262.917,126.174z"/>
		<path fill-rule="evenodd" clip-rule="evenodd" fill="#FEFEFE" d="M288.959,121.393c-4.705-5.091-11.194-7.365-16.98-10.749
			c-0.107-0.125-0.191-0.322-0.326-0.367c-9.703-3.212-11.932-10.25-10.599-19.609c0.598-4.204-0.02-8.581-0.086-12.88
			c0-4.1,0-8.199,0-13.187c11.64,6.661,22.649,12.962,33.66,19.263c1.036,12.449,0.207,24.921,0.446,37.38
			c0.036,1.89-0.418,2.964-2.564,1.498C291.494,122.047,290.152,121.827,288.959,121.393z"/>
		<path fill-rule="evenodd" clip-rule="evenodd" fill="#FEFEFE" d="M278.935,51.862c4.871-2.753,9.837-5.355,14.574-8.323
			c2.42-1.515,4.215-1.519,6.688-0.031c8.752,5.264,17.668,10.253,26.522,15.346c0.98,0.792,1.962,1.583,3.211,2.592
			c-4.598,2.896-8.929,5.623-13.26,8.351c-5.512,2.665-10.712,5.865-15.822,9.219c-2.709,1.907-5.104,1.627-7.995-0.16
			c-9.513-5.881-19.231-11.429-29.378-17.403C268.96,58.049,273.947,54.955,278.935,51.862z"/>
		<path fill-rule="evenodd" clip-rule="evenodd" fill="#684BBD" d="M245.067,315.592c-0.602,1.42-1.203,2.839-1.804,4.259
			c-1.349-0.261-2.55-0.715-2.948-2.231c0.457-1.062,0.913-2.124,1.37-3.185C242.811,314.82,243.938,315.206,245.067,315.592z"/>
		<path fill-rule="evenodd" clip-rule="evenodd" fill="#5E5CC5" d="M258.85,248.959c0.038,2.412,0.373,4.854-0.715,7.155
			c-0.033-2.055-0.066-4.11-0.1-6.166C258.306,249.619,258.577,249.289,258.85,248.959z"/>
		<path fill-rule="evenodd" clip-rule="evenodd" fill="#5E5CC5" d="M257.962,259.892c0.006,2.131,0.359,4.304-0.785,6.292
			C257.269,264.066,256.309,261.816,257.962,259.892z"/>
		<path fill-rule="evenodd" clip-rule="evenodd" fill="#6945BA" d="M240.314,317.619c1.041,0.666,2.375,0.946,2.948,2.23
			c-2.752,5.652-5.286,11.426-8.333,16.914c-2.11,3.799-4.929,7.205-7.431,10.786c-1.194-0.408-2.388-0.817-3.582-1.227
			C229.986,337.1,235.209,327.394,240.314,317.619z"/>
	</g>
</g>
<g id="Layer_2" display="none">
	<path display="inline" fill="#B7B7B7" d="M500,248c0,138.071-111.929,250-250,250S0,386.071,0,248S111.929-2,250-2
		S500,109.929,500,248z M993-205H-272V821H993V-205z"/>
</g>
</svg>
