<?xml version="1.0" encoding="utf-8"?>
<!-- Generator: Adobe Illustrator 16.0.0, SVG Export Plug-In . SVG Version: 6.00 Build 0)  -->
<!DOCTYPE svg PUBLIC "-//W3C//DTD SVG 1.0//EN" "http://www.w3.org/TR/2001/REC-SVG-20010904/DTD/svg10.dtd">
<svg version="1.0" xmlns="http://www.w3.org/2000/svg" xmlns:xlink="http://www.w3.org/1999/xlink" x="0px" y="0px" width="500px"
	 height="500px" viewBox="0 0 500 500" enable-background="new 0 0 500 500" xml:space="preserve">
<g id="sense_chat" display="none">
	<g display="inline">
		<ellipse fill="#7D7FFD" cx="251.341" cy="231.612" rx="169.28" ry="149.406"/>
		<polyline fill="#7D7FFD" points="182.122,356.344 158.819,434.473 231.466,374.163 		"/>
		<polygon fill="#FFFFFF" points="280.271,127.351 190.716,202.285 242.805,264.427 225.442,332.964 314.084,258.029 
			262.909,194.975 		"/>
	</g>
</g>
<g id="karma">
	<g>
		<path fill="#32C071" d="M189.383,169.481c6.1-7.936,11.821-15.8,17.99-23.304c7.863-9.551,16.146-18.749,26.348-25.914
			c4.643-3.268,9.402-6.941,15.489-6.078c3.775,0.53,8.012,1.423,10.942,3.626c7.313,5.476,14.646,11.19,20.787,17.896
			c9.644,10.531,18.313,21.955,27.649,33.315c-0.188,0.088,0.429-0.095,0.922-0.446c21.061-14.75,44.838-21.365,70.154-23.006
			c9.696-0.623,19.457-0.732,29.168-0.488c4.372,0.107,8.978,1.042,13.021,2.703c8.922,3.66,13.448,13.847,11.712,23.333
			c-3.62,19.792-9.151,38.957-18.321,56.926c-24.513,47.977-63,78.243-115.412,90.734c-9.637,2.305-16.986,10.107-16.986,19.156
			c0.005,4.773,1.287,9.522,1.72,14.305c1.257,14.165,2.497,28.316,3.5,42.498c0.67,9.246-3.826,15.197-12.959,16.832
			c-17.435,3.114-34.915,4.065-52.397,0.032c-9.021-2.082-13.651-7.309-12.966-16.507c1.294-17.439,2.5-34.93,4.853-52.234
			c1.735-12.716-5.51-21.306-16.662-23.983c-33.771-8.095-63.04-23.928-86.791-49.386c-25.85-27.725-40.694-60.831-46.713-98.021
			c-2.333-14.446,5.396-25.034,19.942-25.949c35.017-2.175,69.14,0.949,99.772,20.504C185.89,167.131,187.6,168.304,189.383,169.481
			z M248.484,319.218c1.965,0,3.932,0.09,5.891-0.013c2.059-0.117,4.143-0.293,6.175-0.659
			c21.231-3.765,37.139-14.778,46.304-34.597c4.703-10.174,5.448-20.953,4.419-32.062c-1.691-18.091-5.56-35.567-12.976-52.215
			c-10.118-22.702-25.292-41.803-42.385-59.529c-4.213-4.371-10.005-4.346-14.234,0.041c-4.555,4.718-9.029,9.519-13.306,14.486
			c-21.096,24.519-36.122,51.982-40.698,84.466c-1.444,10.282-2.961,20.607-1.226,30.984
			C191.361,299.466,218.164,320.75,248.484,319.218z M172.604,200.46c3.519-7.041,6.813-14.065,10.533-20.85
			c1.438-2.616,0.969-3.972-1.39-5.191c-7.85-4.039-15.428-8.784-23.616-11.983c-23.502-9.17-48.194-9.836-72.998-8.684
			c-2.5,0.109-5.002,1.423-7.375,2.455c-2.075,0.9-1.965,2.222-0.299,3.734c7.756,7.048,15.442,14.188,23.216,21.23
			c0.705,0.636,1.858,1.125,2.807,1.131c3.783,0.028,7.591-0.446,11.367-0.223c14.743,0.875,28.998,3.992,42.407,10.295
			C162.479,194.828,167.481,197.743,172.604,200.46z M422.269,158.209c-3.647-3.476-7.375-4.602-11.357-4.576
			c-10.913,0.055-21.853,0.028-32.745,0.619c-15.504,0.818-30.529,4.177-44.688,10.621c-7.084,3.228-13.771,7.34-20.551,11.001
			c4.275,8.778,8.147,16.693,12.069,24.76c0.476-0.215,0.988-0.386,1.423-0.68c13.043-8.668,27.429-13.943,42.818-16.362
			c8.17-1.287,16.365-2.878,24.729-1.464c0.93,0.156,2.252-0.582,3.043-1.287c6.536-5.803,12.981-11.701,19.47-17.55
			C418.322,161.627,420.212,160.006,422.269,158.209z M109.262,189.533c10.479,30.339,25.793,55.676,53.007,72.659
			c0.217-0.713,0.4-1.01,0.387-1.294c-0.618-16.79,1.965-33.127,7.109-49.063c0.705-2.168-0.291-2.93-1.722-3.918
			c-10.975-7.532-23.034-12.535-36.047-15.07C124.771,191.431,117.402,190.698,109.262,189.533z M335.355,262.13
			c27.19-17.007,42.508-42.299,52.744-72.082c-3.255,0.259-5.857,0.407-8.449,0.664c-17.901,1.756-34.629,6.889-49.714,16.975
			c-2.257,1.518-2.44,2.787-1.802,5.307c2.119,8.351,4.275,16.735,5.537,25.243C334.814,245.963,334.814,253.859,335.355,262.13z
			 M236.621,378.549c0.258,4.02,0.414,8.061,0.82,12.078c0.209,2.157,0.468,4.447,1.362,6.368c1.057,2.257,2.386,5.265,4.358,6.038
			c8.833,3.482,15.198-0.515,16.663-9.841c0.031-0.217,0.037-0.438,0.066-0.658c1.798-15.141,0.598-30.062-3.338-44.751
			c-0.977-3.662-2.384-7.28-4.113-10.648c-1.864-3.635-5.356-3.581-7.341,0.012c-1.369,2.461-2.405,5.145-3.254,7.83
			C238.383,355.889,237.171,367.154,236.621,378.549z"/>
	</g>
</g>
<g id="dmai" display="none">
	<g display="inline">
		<path fill="#FDFDFD" d="M142.652,257.896c4.057-5.306,9.386-7.417,15.717-5.227c6.215,2.15,8.573,7.36,8.99,13.586
			c0.133,1.979,0.155,3.969,0.157,5.953c0.014,12.248,0.099,24.497-0.057,36.742c-0.04,3.142,0.687,4.401,4.096,4.216
			c5.445-0.297,10.928-0.263,16.378-0.009c3.157,0.147,3.883-0.978,3.848-3.955c-0.147-12.742-0.088-25.488-0.044-38.231
			c0.012-3.465-0.031-6.948,1.209-10.294c2.036-5.493,6.241-8.638,11.961-8.827c5.269-0.176,9.747,2.762,12.08,7.933
			c1.458,3.232,1.834,6.653,1.829,10.159c-0.019,13.076,0.065,26.151-0.064,39.226c-0.028,2.842,0.429,4.171,3.723,4
			c5.612-0.291,11.255-0.203,16.876-0.027c2.604,0.082,3.446-0.722,3.364-3.352c-0.181-5.786,0.061-11.586-0.08-17.375
			c-0.305-12.561,1.061-25.18-0.953-37.673c-2.007-12.449-7.81-22.181-20.717-25.849c-13.168-3.743-23.517,0.181-32.519,11.852
			c-0.284,0.368-0.489,0.798-1.062,1.751c-3.378-6.366-7.819-10.681-14.054-12.753c-11.708-3.891-22.153-2.124-30.789,7.221
			c-0.011-16.372-0.091-32.744,0.032-49.115c0.022-2.948-0.608-4.093-3.794-3.926c-5.277,0.277-10.594,0.308-15.867-0.005
			c-3.584-0.213-4.371,1.034-4.33,4.439c0.183,15.212,0.103,30.428,0.036,45.643c-0.006,1.314,0.761,2.91-0.715,4.044
			c-8.841-10.083-22.263-13.073-35.798-8.029C65,236.389,54.568,254.155,56.171,275.258c1.251,16.467,8.447,29.698,24.154,36.414
			c13.854,5.923,27.008,4.48,38.338-7.807c0,1.88,0.149,3.013-0.026,4.092c-0.659,4.028,0.72,5.582,5.003,5.218
			c4.761-0.405,9.606-0.374,14.373-0.002c3.85,0.301,4.618-1.059,4.585-4.679C142.448,291.629,142.604,274.762,142.652,257.896z
			 M323.07,237.632c-8.329-8.549-18.044-11.335-28.938-9.383c-17.048,3.054-28.525,13.181-33.133,29.716
			c-4.814,17.274-1.536,33.23,11.989,45.94c11.798,11.085,28.444,13.668,41.812,7.139c3.087-1.508,5.462-3.998,8.584-6.041
			c0.11,1.443,0.383,2.454,0.225,3.392c-0.693,4.123,1.274,4.987,4.975,4.763c4.78-0.291,9.609-0.323,14.384,0.011
			c3.702,0.259,4.748-0.837,4.715-4.613c-0.188-21.34-0.049-42.684-0.124-64.025c-0.017-4.767,2.031-11.001-0.768-13.918
			c-3.04-3.168-9.368-0.91-14.252-1.019C324.355,229.412,324.354,229.543,323.07,237.632z M415.56,248.681
			c0,20.171,0.053,40.342-0.062,60.511c-0.017,2.908,0.543,4.13,3.771,3.972c5.608-0.275,11.242-0.181,16.859-0.029
			c2.471,0.066,3.475-0.5,3.469-3.243c-0.081-40.837-0.087-81.674,0.01-122.511c0.006-3.023-1.185-3.507-3.772-3.432
			c-5.286,0.155-10.602,0.339-15.863-0.05c-3.979-0.294-4.517,1.283-4.49,4.768C415.64,208.67,415.559,228.676,415.56,248.681z
			 M369.709,271.404c0,12.557,0.114,25.114-0.076,37.666c-0.051,3.282,0.918,4.236,4.139,4.086
			c5.44-0.255,10.903-0.163,16.352-0.028c2.422,0.061,3.504-0.453,3.494-3.224c-0.098-25.771-0.085-51.544-0.014-77.316
			c0.007-2.417-0.825-3.134-3.147-3.083c-5.614,0.124-11.246,0.265-16.846-0.044c-3.514-0.194-3.991,1.277-3.959,4.277
			C369.788,246.293,369.709,258.85,369.709,271.404z M381.675,213.025c8.122-0.043,14.545-6.398,14.603-14.45
			c0.057-7.908-6.493-14.46-14.545-14.55c-8.358-0.094-15.063,6.354-15.062,14.485C366.672,206.709,373.246,213.069,381.675,213.025
			z"/>
		<path fill-rule="evenodd" clip-rule="evenodd" fill="#1D4CAD" d="M142.652,257.896c-0.047,16.866-0.204,33.733-0.054,50.599
			c0.033,3.62-0.735,4.979-4.585,4.679c-4.767-0.372-9.611-0.403-14.373,0.002c-4.283,0.364-5.662-1.189-5.003-5.218
			c0.176-1.079,0.026-2.212,0.026-4.092c-11.33,12.287-24.483,13.729-38.338,7.807c-15.707-6.716-22.903-19.947-24.154-36.414
			c-1.603-21.103,8.828-38.869,25.936-45.244c13.535-5.044,26.957-2.055,35.798,8.029c1.477-1.135,0.709-2.73,0.715-4.044
			c0.067-15.214,0.146-30.43-0.036-45.643c-0.042-3.406,0.745-4.653,4.33-4.439c5.273,0.313,10.59,0.283,15.867,0.005
			c3.186-0.167,3.816,0.978,3.794,3.926c-0.123,16.371-0.043,32.744-0.033,49.112C142.578,243.936,142.615,250.917,142.652,257.896z
			 M99.782,251.28c-10.898-0.085-18.9,8.28-18.896,19.752c0.004,11.461,8.048,20.168,18.634,20.17
			c10.436,0,18.73-8.958,18.731-20.229C118.252,259.709,110.424,251.362,99.782,251.28z"/>
		<path fill-rule="evenodd" clip-rule="evenodd" fill="#4F4F52" d="M323.07,237.632c1.283-8.089,1.285-8.22,9.47-8.04
			c4.884,0.108,11.212-2.15,14.252,1.019c2.799,2.917,0.751,9.152,0.768,13.918c0.075,21.341-0.064,42.685,0.124,64.025
			c0.033,3.776-1.013,4.872-4.715,4.613c-4.774-0.334-9.604-0.302-14.384-0.011c-3.7,0.225-5.668-0.64-4.975-4.763
			c0.158-0.938-0.114-1.948-0.225-3.392c-3.122,2.043-5.497,4.533-8.584,6.041c-13.368,6.529-30.015,3.946-41.812-7.139
			c-13.525-12.71-16.804-28.666-11.989-45.94c4.607-16.535,16.085-26.662,33.133-29.716
			C305.026,226.297,314.741,229.083,323.07,237.632z M323.544,271.302c0.08-11.228-8.036-19.724-18.976-19.863
			c-11.355-0.146-20.462,8.548-20.539,19.609c-0.078,11.006,9.152,20.116,20.283,20.021
			C315.134,290.978,323.465,282.414,323.544,271.302z"/>
		<path fill-rule="evenodd" clip-rule="evenodd" fill="#4F4F52" d="M142.652,257.896c-0.037-6.979-0.074-13.959-0.11-20.936
			c8.636-9.342,19.081-11.109,30.79-7.218c6.235,2.072,10.676,6.387,14.054,12.753c0.573-0.953,0.778-1.383,1.062-1.751
			c9.002-11.671,19.351-15.595,32.519-11.852c12.907,3.667,18.71,13.4,20.717,25.849c2.014,12.493,0.648,25.112,0.953,37.673
			c0.141,5.789-0.102,11.589,0.08,17.375c0.082,2.63-0.76,3.434-3.364,3.352c-5.622-0.176-11.264-0.264-16.876,0.027
			c-3.294,0.171-3.751-1.158-3.723-4c0.13-13.074,0.045-26.149,0.064-39.226c0.005-3.506-0.37-6.927-1.829-10.159
			c-2.333-5.171-6.811-8.108-12.08-7.933c-5.72,0.189-9.925,3.334-11.961,8.827c-1.24,3.346-1.197,6.829-1.209,10.294
			c-0.044,12.743-0.104,25.489,0.044,38.231c0.035,2.978-0.691,4.103-3.848,3.955c-5.451-0.254-10.933-0.288-16.378,0.009
			c-3.409,0.186-4.135-1.074-4.096-4.216c0.155-12.245,0.07-24.494,0.057-36.742c-0.002-1.984-0.024-3.974-0.157-5.953
			c-0.417-6.226-2.775-11.436-8.99-13.586C152.038,250.479,146.708,252.59,142.652,257.896z"/>
		<path fill-rule="evenodd" clip-rule="evenodd" fill="#4F4F52" d="M415.56,248.681c-0.001-20.005,0.08-40.011-0.078-60.015
			c-0.026-3.485,0.512-5.062,4.49-4.768c5.262,0.389,10.577,0.205,15.863,0.05c2.588-0.076,3.778,0.409,3.772,3.432
			c-0.097,40.836-0.091,81.674-0.01,122.511c0.006,2.743-0.998,3.31-3.469,3.243c-5.617-0.151-11.251-0.246-16.859,0.029
			c-3.229,0.158-3.788-1.063-3.771-3.972C415.612,289.022,415.56,268.852,415.56,248.681z"/>
		<path fill-rule="evenodd" clip-rule="evenodd" fill="#4F4F52" d="M369.709,271.404c0-12.555,0.079-25.111-0.058-37.666
			c-0.032-3,0.445-4.471,3.959-4.277c5.6,0.31,11.231,0.168,16.846,0.044c2.322-0.052,3.154,0.665,3.147,3.083
			c-0.071,25.772-0.084,51.544,0.014,77.316c0.01,2.771-1.072,3.284-3.494,3.224c-5.448-0.135-10.911-0.227-16.352,0.028
			c-3.221,0.15-4.189-0.804-4.139-4.086C369.823,296.519,369.709,283.961,369.709,271.404z"/>
		<path fill-rule="evenodd" clip-rule="evenodd" fill="#4F4F52" d="M381.675,213.025c-8.429,0.044-15.003-6.315-15.005-14.515
			c-0.001-8.131,6.704-14.58,15.062-14.485c8.052,0.09,14.602,6.643,14.545,14.55C396.22,206.626,389.797,212.981,381.675,213.025z"
			/>
		<path fill-rule="evenodd" clip-rule="evenodd" fill="#FDFDFD" d="M99.782,251.28c10.642,0.082,18.47,8.429,18.469,19.692
			c0,11.271-8.295,20.229-18.731,20.229c-10.586-0.002-18.63-8.709-18.634-20.17C80.882,259.561,88.884,251.195,99.782,251.28z"/>
		<path fill-rule="evenodd" clip-rule="evenodd" fill="#FDFDFD" d="M323.544,271.302c-0.079,11.112-8.41,19.676-19.231,19.767
			c-11.131,0.096-20.361-9.015-20.283-20.021c0.077-11.062,9.184-19.755,20.539-19.609
			C315.508,251.578,323.624,260.074,323.544,271.302z"/>
	</g>
</g>
<g id="pixeos" display="none">
	<g display="inline">
		<g id="svg_1">
			
				<linearGradient id="svg_2_1_" gradientUnits="userSpaceOnUse" x1="279.1162" y1="631.2773" x2="279.1162" y2="240.8657" gradientTransform="matrix(1 0 0 1 -29 -188.2803)">
				<stop  offset="0" style="stop-color:#00FFE4"/>
				<stop  offset="1" style="stop-color:#FF00FC"/>
			</linearGradient>
			<path id="svg_2" fill="url(#svg_2_1_)" d="M228.9,239.7c3.8,2.4,6.9,11.8,13.6,10.899c7.4-1,10-17.3,15.8-18.8
				c9.9-2.5,16.3,11.6,8.601,40.2c-2.301,8.5,18.5,7.2,20.899-19.4C290.6,220.7,274.9,213,271.4,195.7c-3.2-15.9-2.4-27.5-2.4-27.5
				s-56.9,26.7-56.9,72.9c0,11.5,4.2,27.7,15.9,28.4C233.8,269.8,226,237.8,228.9,239.7L228.9,239.7z"/>
			
				<linearGradient id="svg_3_1_" gradientUnits="userSpaceOnUse" x1="278.7998" y1="631.2803" x2="278.7998" y2="240.8651" gradientTransform="matrix(1 0 0 1 -29 -188.2803)">
				<stop  offset="0" style="stop-color:#00FFE4"/>
				<stop  offset="1" style="stop-color:#FF00FC"/>
			</linearGradient>
			<path id="svg_3" fill="url(#svg_3_1_)" d="M281.5,430.5l-9.2-90.7h-26.2v107.5l-31.5-18.6L226.3,325.1h5.1h41.7h5.101
				L289.5,425.7l93.6-54.9L338,174.7l-88.5-123l-86.9,122.8l-46.1,196.3l132.9,78.4l33.5-19.7L281.5,430.5L281.5,430.5z
				 M275.4,147.4c0,0-1.101,15.4,3.199,36.8c4.7,23.2,22,33.3,22,76.2c0,33.199-24.399,50.8-24.399,50.8h-49.6
				c0,0-27.4-21.8-27.4-66.2C199.2,183.2,275.4,147.4,275.4,147.4L275.4,147.4z"/>
		</g>
	</g>
</g>
<g id="Layer_2" display="none">
	<path display="inline" fill="#FFFFFF" stroke="#CCCCCC" stroke-width="10" stroke-miterlimit="10" d="M500,248
		c0,138.071-111.929,250-250,250S0,386.071,0,248S111.929-2,250-2S500,109.929,500,248z M988-200H-277V826H988V-200z"/>
</g>
</svg>
