<?xml version="1.0" encoding="UTF-8" standalone="no"?>
<svg
   xmlns:dc="http://purl.org/dc/elements/1.1/"
   xmlns:cc="http://creativecommons.org/ns#"
   xmlns:rdf="http://www.w3.org/1999/02/22-rdf-syntax-ns#"
   xmlns:svg="http://www.w3.org/2000/svg"
   xmlns="http://www.w3.org/2000/svg"
   viewBox="0 0 94.199997 107.65333"
   height="107.65333"
   width="94.199997"
   xml:space="preserve"
   id="svg2"
   version="1.1"><metadata
     id="metadata8"><rdf:RDF><cc:Work
         rdf:about=""><dc:format>image/svg+xml</dc:format><dc:type
           rdf:resource="http://purl.org/dc/dcmitype/StillImage" /></cc:Work></rdf:RDF></metadata><defs
     id="defs6" /><g
     transform="matrix(1.3333333,0,0,-1.3333333,0,107.65333)"
     id="g10"><g
       transform="scale(0.1)"
       id="g12"><path
         id="path14"
         style="fill:#29285c;fill-opacity:1;fill-rule:nonzero;stroke:none"
         d="m 630.781,454.164 h -37.859 v 113.535 c 0,132.149 -107.531,239.699 -239.692,239.699 -132.144,0 -239.683,-107.55 -239.683,-239.699 V 454.164 H 75.6953 C 33.8984,454.164 0,420.258 0,378.477 V 75.7031 C 0,33.9063 33.8984,0 75.6953,0 H 630.781 c 41.785,0 75.684,33.9063 75.684,75.7031 V 378.477 c 0,41.781 -33.899,75.687 -75.684,75.687 m -164.004,0 H 239.688 v 113.535 c 0,62.61 50.937,113.539 113.542,113.539 62.61,0 113.547,-50.929 113.547,-113.539 V 454.164" /><path
         id="path16"
         style="fill:#27cfb7;fill-opacity:1;fill-rule:nonzero;stroke:none"
         d="m 317.063,85.8594 v 0 c -12.161,0 -23.657,5.4492 -31.36,14.8436 l -90.168,110.274 c -14.148,17.293 -11.582,42.812 5.715,56.953 17.297,14.16 42.805,11.621 56.965,-5.696 l 58.848,-71.961 133.875,163.711 c 14.152,17.313 39.648,19.844 56.972,5.704 17.305,-14.161 19.856,-39.668 5.684,-56.973 L 348.391,100.703 C 340.703,91.3086 329.199,85.8594 317.063,85.8594" /></g></g></svg>