<svg id="Layer_1" data-name="Layer 1" xmlns="http://www.w3.org/2000/svg" viewBox="0 0 1280 491.6">
  <defs>
    <style>
      .cls-1 {
        fill: #fff;
      }
    </style>
  </defs>
  <title>dfuse-logo-white-01</title>
  <g>
    <path class="cls-1" d="M606.8,178.6V359.7H577.5V342.9a46.9,46.9,0,0,1-18.7,13.9,62.9,62.9,0,0,1-24.5,4.6,69.08,69.08,0,0,1-33.8-8.3A59,59,0,0,1,477,329.6c-5.7-10.2-8.5-21.8-8.5-35s2.8-24.8,8.5-34.9a59.43,59.43,0,0,1,23.5-23.4,69.08,69.08,0,0,1,33.8-8.3,62.88,62.88,0,0,1,23.7,4.4,46.32,46.32,0,0,1,18.3,13.2V178.7h30.5Zm-49,151.6a35.47,35.47,0,0,0,13.9-14.3,47.87,47.87,0,0,0,0-43,36.78,36.78,0,0,0-13.9-14.3,41.7,41.7,0,0,0-39.6,0,35.47,35.47,0,0,0-13.9,14.3,47.87,47.87,0,0,0,0,43,36.78,36.78,0,0,0,13.9,14.3,39.62,39.62,0,0,0,19.8,5A38.87,38.87,0,0,0,557.8,330.2Z"/>
    <path class="cls-1" d="M680.5,222.5v7.8h35.9v24.4H681.5V359.6H651V254.7H629.5V230.3H651V222c0-14,4.1-25,12.2-33.1s19.6-12.1,34.4-12.1c11.7,0,20.9,2.4,27.6,7.1l-8.5,22.9a29,29,0,0,0-16.8-5.4C686.9,201.5,680.5,208.5,680.5,222.5Z"/>
    <path class="cls-1" d="M863,229.3V359.6H834V343a47.55,47.55,0,0,1-18.3,13.5,58.38,58.38,0,0,1-23.7,4.8c-17.4,0-31.1-4.8-41.1-14.5s-15-24-15-43.1V229.3h30.5v70.3c0,11.7,2.6,20.5,7.9,26.2s12.8,8.7,22.6,8.7c10.9,0,19.6-3.4,26-10.1s9.6-16.5,9.6-29.2V229.3Z"/>
    <path class="cls-1" d="M912.3,357.2c-10.1-2.8-18.1-6.3-24.2-10.5l11.7-23.2a77.38,77.38,0,0,0,21.1,9.4,86,86,0,0,0,24.3,3.5q27.3,0,27.3-14.4c0-4.6-2.3-7.7-7-9.5s-12.1-3.5-22.3-5.1a178.78,178.78,0,0,1-26.2-5.6,40,40,0,0,1-17.6-11.1c-5-5.3-7.4-12.6-7.4-22.1,0-12.4,5.2-22.2,15.5-29.6s24.3-11.1,41.8-11.1a116.69,116.69,0,0,1,26.8,3.1c8.9,2,16.3,4.8,22,8.2l-11.7,23.2a72.39,72.39,0,0,0-37.3-9.8c-8.9,0-15.7,1.3-20.4,4s-7,6.2-7,10.6c0,4.9,2.5,8.3,7.4,10.4s12.6,3.9,23.1,5.7a177.4,177.4,0,0,1,25.6,5.6A40.11,40.11,0,0,1,995,299.6c4.8,5,7.2,12.2,7.2,21.5,0,12.2-5.3,22-15.9,29.3s-25,11-43.2,11A123.58,123.58,0,0,1,912.3,357.2Z"/>
    <path class="cls-1" d="M1150.7,304.2H1048.5a35.63,35.63,0,0,0,14,22.8q11.4,8.4,28.2,8.4c14.3,0,26.1-4.7,35.4-14.2l16.3,18.8a55.94,55.94,0,0,1-22.2,15.9q-13.35,5.4-30.3,5.4c-14.3,0-26.9-2.8-37.8-8.5a61.85,61.85,0,0,1-25.3-23.8,71.64,71.64,0,0,1-.2-68.8,61.69,61.69,0,0,1,24-23.8c10.2-5.7,21.8-8.5,34.7-8.5,12.7,0,24,2.8,34,8.4a59.3,59.3,0,0,1,23.4,23.7c5.6,10.2,8.4,21.9,8.4,35.3A62.29,62.29,0,0,1,1150.7,304.2Zm-90.1-43.3q-10.2,8.7-12.3,23.1h73.9c-1.3-9.4-5.3-17.1-12-22.9s-15-8.8-24.9-8.8C1075.6,252.3,1067.3,255.1,1060.6,260.9Z"/>
  </g>
  <path class="cls-1" d="M249.9,167.2h0c39.8,0,71.1,31.6,71.1,72,0,39.4-33.4,72.8-73.1,72.8H178.8V237.8c.1-39.7,31.3-70.6,71.1-70.6m0-47.6c-67.4,0-119.9,52.5-119.9,118.1V359.6H247.9c67.4,0,122.1-54.7,122.1-120.3A119.42,119.42,0,0,0,249.9,119.6Z"/>
</svg>
