<svg xmlns="http://www.w3.org/2000/svg" width="120" height="138" viewBox="0 0 120 138">
  <defs>
    <linearGradient id="ore_logo-a" x1="49.997%" x2="49.997%" y1="-22.692%" y2="111.696%">
      <stop offset="4%" stop-color="#06B9F8"/>
      <stop offset="100%" stop-color="#00E4C4"/>
    </linearGradient>
  </defs>
  <path fill="url(#ore_logo-a)" d="M118.510112,34.3317073 L60.5865169,0.908780488 C60.5188477,0.871153816 60.4490699,0.837439745 60.3775281,0.807804878 L60.2966292,0.807804878 L60.1617978,0.760682927 L60.0337079,0.760682927 L59.9325843,0.673170732 C59.7781857,0.653004323 59.6218143,0.653004323 59.4674157,0.673170732 L59.3595506,0.673170732 L59.2382022,0.673170732 L59.1033708,0.720292683 L59.0224719,0.720292683 C58.9487147,0.749867336 58.8766898,0.783579597 58.8067416,0.821268293 L0.88988764,34.3317073 C0.347787323,34.6425502 0.00967567723,35.2154758 0,35.8396098 L0,102.624878 C0,103.258656 0.3395203,103.844023 0.88988764,104.159707 L58.8067416,137.548976 L59.0224719,137.656683 L59.1033708,137.656683 L59.2382022,137.703805 L59.3595506,137.703805 L59.4674157,137.703805 L59.6966292,137.703805 L59.9325843,137.703805 L60.0404494,137.703805 L60.1617978,137.703805 L60.2966292,137.656683 L60.3775281,137.656683 L60.5865169,137.555707 L118.510112,104.159707 C119.058456,103.842 119.397108,103.257911 119.4,102.624878 L119.4,35.8396098 C119.387659,35.2162268 119.050263,34.6445143 118.510112,34.3317073 Z M64.5775281,7.32409756 L115.247191,36.5329756 L98.3932584,65.7081951 L64.5775281,7.32409756 Z M96.3101124,69.2558049 L59.6966292,132.466537 L23.1101124,69.228878 L59.6966292,5.99795122 L96.3101124,69.2558049 Z M21.0539326,65.6812683 L4.2,36.5060488 L54.8359551,7.29717073 L21.0539326,65.6812683 Z M19.0314607,69.228878 L3.55280899,95.9268293 L3.55280899,42.5309268 L19.0314607,69.228878 Z M21.0539326,72.7764878 L54.8359551,131.167317 L4.17303371,101.958439 L21.0539326,72.7764878 Z M98.3393258,72.7764878 L115.193258,101.958439 L64.5573034,131.167317 L98.3393258,72.7764878 Z M100.361798,69.228878 L115.806742,42.5309268 L115.806742,95.9268293 L100.361798,69.228878 Z"/>
</svg>
