<?xml version="1.0" encoding="UTF-8" standalone="no"?>
<svg
   xmlns:dc="http://purl.org/dc/elements/1.1/"
   xmlns:cc="http://creativecommons.org/ns#"
   xmlns:rdf="http://www.w3.org/1999/02/22-rdf-syntax-ns#"
   xmlns:svg="http://www.w3.org/2000/svg"
   xmlns="http://www.w3.org/2000/svg"
   viewBox="0 0 487.32001 68.173332"
   height="68.173332"
   width="487.32001"
   xml:space="preserve"
   id="svg2"
   version="1.1"><metadata
     id="metadata8"><rdf:RDF><cc:Work
         rdf:about=""><dc:format>image/svg+xml</dc:format><dc:type
           rdf:resource="http://purl.org/dc/dcmitype/StillImage" /></cc:Work></rdf:RDF></metadata><defs
     id="defs6" /><g
     transform="matrix(1.3333333,0,0,-1.3333333,0,68.173333)"
     id="g10"><g
       transform="scale(0.1)"
       id="g12"><path
         id="path14"
         style="fill:#ffffff;fill-opacity:1;fill-rule:nonzero;stroke:none"
         d="M 794.418,36.6094 H 991.207 V 73.3203 H 835.469 V 203.223 h 146.328 v 36.23 H 835.469 V 353.18 h 155.738 v 36.468 H 794.418 V 36.6094" /><path
         id="path16"
         style="fill:#ffffff;fill-opacity:1;fill-rule:nonzero;stroke:none"
         d="m 1301.75,104.707 c -19.96,-24.6289 -49.5,-36.9453 -88.61,-36.9453 -38.8,0 -68.38,12.3555 -88.74,37.0623 -20.37,24.719 -30.55,60.977 -30.55,108.789 0,47.164 10.18,83.106 30.55,107.813 20.36,24.711 50.1,37.058 89.22,37.058 38.96,0 68.37,-12.269 88.26,-36.82 19.87,-24.547 29.82,-60.566 29.82,-108.051 0,-47.98 -9.98,-84.277 -29.95,-108.906 z m -88.13,290.488 c -52.16,0 -92.41,-15.82 -120.74,-47.445 -28.33,-31.633 -42.5,-76.184 -42.5,-133.66 0,-57.949 14.13,-102.82 42.38,-134.6173 28.25,-31.7969 68.38,-47.6875 120.38,-47.6875 50.87,0 90.59,16.1757 119.16,48.5468 28.58,32.344 42.86,76.777 42.86,133.281 0,56.664 -14.24,101.094 -42.74,133.285 -28.49,32.2 -68.09,48.297 -118.8,48.297" /><path
         id="path18"
         style="fill:#ffffff;fill-opacity:1;fill-rule:nonzero;stroke:none"
         d="m 1555.07,231.973 c -22.06,7.871 -38.44,15.082 -49.15,21.605 -10.7,6.52 -18.31,13.676 -22.81,21.488 -4.51,7.801 -6.77,17.821 -6.77,30.063 0,16.582 6.12,29.539 18.36,38.879 12.23,9.328 29.22,14 50.95,14 27.53,0 55.86,-6.117 85,-18.352 l 12.79,35.739 c -29.45,12.871 -61.73,19.32 -96.83,19.32 -33.64,0 -60.69,-8.051 -81.13,-24.149 -20.44,-16.097 -30.67,-37.75 -30.67,-64.961 0,-25.91 7.05,-46.917 21.13,-63.015 14.09,-16.106 37.55,-30.031 70.39,-41.781 23.51,-8.368 41.01,-15.86 52.52,-22.45 11.51,-6.601 19.72,-13.808 24.63,-21.613 4.91,-7.812 7.37,-17.828 7.37,-30.066 0,-18.516 -6.93,-32.9612 -20.77,-43.3402 -13.85,-10.3906 -34.45,-15.5781 -61.82,-15.5781 -16.74,0 -33.64,1.7696 -50.7,5.3125 -17.07,3.5352 -32.85,8.3711 -47.33,14.4844 V 47.9609 c 22.53,-10.7851 54.73,-16.1757 96.58,-16.1757 38.64,0 69.23,8.6914 91.76,26.0742 22.54,17.3828 33.81,41.6133 33.81,72.6876 0,24.141 -6.96,43.777 -20.89,58.918 -13.92,15.133 -39.4,29.293 -76.42,42.508" /><path
         id="path20"
         style="fill:#ffffff;fill-opacity:1;fill-rule:nonzero;stroke:none"
         d="M 3241.99,108.691 C 3217.36,84.6289 3180.58,72.5898 3131.64,72.5898 h -49.98 V 354.629 h 59.63 c 45.57,0 79.89,-11.668 103,-35.012 23.09,-23.34 34.65,-58.039 34.65,-104.082 0,-47.156 -12.32,-82.781 -36.95,-106.844 z m -93.21,281.426 H 3040.61 V 37.0977 h 97.79 c 59.4,0 104.92,15.4101 136.55,46.2421 31.63,30.8202 47.45,75.3712 47.45,133.6522 0,54.567 -15.21,97.067 -45.63,127.496 -30.43,30.418 -73.09,45.629 -127.99,45.629" /><path
         id="path22"
         style="fill:#ffffff;fill-opacity:1;fill-rule:nonzero;stroke:none"
         d="m 3441.46,186.328 41.53,109.379 c 6.6,18.52 11.67,35.5 15.21,50.953 5.64,-20.121 11.11,-37.101 16.43,-50.953 l 41.04,-109.379 z m 74.61,205.238 h -34.53 L 3341.97,37.0977 h 41.54 l 43.45,112.2773 h 141.51 l 43.94,-112.2773 h 42.5 L 3516.07,391.566" /><path
         id="path24"
         style="fill:#ffffff;fill-opacity:1;fill-rule:nonzero;stroke:none"
         d="m 2779.33,186.328 41.53,109.379 c 6.6,18.52 11.67,35.5 15.21,50.953 5.65,-20.121 11.11,-37.101 16.42,-50.953 l 41.05,-109.379 z m 40.08,205.238 -139.57,-354.4683 h 41.54 l 43.45,112.2773 h 141.51 l 43.94,-112.2773 h 42.5 L 2853.94,391.566 h -34.53" /><path
         id="path26"
         style="fill:#ffffff;fill-opacity:1;fill-rule:nonzero;stroke:none"
         d="m 1883.93,358.484 c 26.71,0 53.44,-6.277 80.16,-18.828 l 17.39,35.25 c -27.68,13.52 -60.04,20.293 -97.08,20.293 -34.76,0 -64.99,-7.41 -90.66,-22.222 -25.67,-14.809 -45.32,-35.899 -58.92,-63.262 -13.6,-27.367 -20.41,-59.238 -20.41,-95.625 0,-58.113 14.13,-102.949 42.38,-134.5002 28.25,-31.5546 68.38,-47.3242 120.38,-47.3242 35.9,0 66.08,4.5899 90.54,13.7578 v 35.9883 c -31.55,-8.8594 -59.63,-13.2812 -84.26,-13.2812 -40.09,0 -70.95,12.5976 -92.61,37.7815 -21.65,25.199 -32.48,60.898 -32.48,107.109 0,44.91 11.23,80.274 33.69,106.113 22.45,25.832 53.08,38.75 91.88,38.75" /><path
         id="path28"
         style="fill:#ffffff;fill-opacity:1;fill-rule:nonzero;stroke:none"
         d="m 2094.98,186.328 41.53,109.379 c 6.61,18.52 11.67,35.5 15.22,50.953 5.63,-20.121 11.1,-37.101 16.41,-50.953 L 2209.2,186.328 Z M 2135.07,391.566 1995.5,37.0977 h 41.53 l 43.46,112.2773 h 141.5 l 43.95,-112.2773 h 42.5 L 2169.59,391.566 h -34.52" /><path
         id="path30"
         style="fill:#ffffff;fill-opacity:1;fill-rule:nonzero;stroke:none"
         d="m 2593.62,187.527 c -0.32,-10.136 0.08,-27 1.21,-50.574 1.13,-23.594 1.85,-37.5585 2.17,-41.9061 h -1.92 L 2402.63,390.117 h -46.37 V 37.0977 h 37.91 V 237.754 c 0,28.984 -1.29,60.855 -3.86,95.625 h 1.93 L 2585.18,37.0977 h 46.84 V 390.117 h -38.4 v -202.59" /><path
         id="path32"
         style="fill:#ffffff;fill-opacity:1;fill-rule:nonzero;stroke:none"
         d="m 421.02,59.5703 3.496,0.7305 17.246,4.6406 155.988,115.9256 -40.762,17.61 19.93,73.668 9.16,33.867 -48.406,-8.121 -15.957,-2.676 -28.309,-4.75 -17.746,47.43 -43.238,-44.461 -44.184,-45.446 -1.16,-1.039 0.07,0.535 11.606,90.356 11.969,93.195 -43.5,-30.648 -48.512,74.992 -23.246,35.937 -10.02,-15.964 -59.492,-94.77 -45.742,28.578 14.555,-116.793 4.781,-38.359 3.32,-26.637 -57.215,58.238 -28.793,29.313 L 101.25,291.469 43.0273,299.996 3.88672,305.727 35.832,197.441 0,178.301 151.48,61.3789 188.43,54.0039 187.445,52.9688 137.039,0 l 118.504,24.8633 16.922,3.543 21.535,4.5234 2.715,-0.5469 v 0 h 0.008 l 0.582,-0.1172 4.586,-0.9179 5.074,-1.0157 L 402.379,11.2891 437.551,4.25781 458.891,0 l -39.086,36.8945 -0.492,0.4571 -0.524,0.5 -18.199,17.1679 -0.235,0.2149 14.696,3.0859 5.969,1.25" /></g></g></svg>