<?xml version="1.0" encoding="utf-8"?>
<!-- Generator: Adobe Illustrator 16.0.0, SVG Export Plug-In . SVG Version: 6.00 Build 0)  -->
<!DOCTYPE svg PUBLIC "-//W3C//DTD SVG 1.1//EN" "http://www.w3.org/Graphics/SVG/1.1/DTD/svg11.dtd">
<svg version="1.1" xmlns="http://www.w3.org/2000/svg" xmlns:xlink="http://www.w3.org/1999/xlink" x="0px" y="0px" width="200px"
	 height="200px" viewBox="0 0 200 200" enable-background="new 0 0 200 200" xml:space="preserve">
<g id="stripe" display="none">
	<g display="inline">
		<path fill="#6772E5" d="M88.799,67.098c0-6.427,5.275-8.899,14.011-8.899c12.527,0,28.353,3.789,40.88,10.548V30.009
			c-13.681-5.438-27.198-7.581-40.88-7.581c-33.461,0-55.714,17.472-55.714,46.648c0,45.496,62.637,38.242,62.637,57.858
			c0,7.583-6.593,10.054-15.824,10.054c-13.682,0-31.155-5.606-45-13.186v39.231c15.33,6.594,30.824,9.395,45,9.395
			c34.287,0,57.858-16.977,57.858-46.483C151.603,76.822,88.799,85.561,88.799,67.098z"/>
	</g>
</g>
<g id="telegram" display="none">
	
		<linearGradient id="SVGID_1_" gradientUnits="userSpaceOnUse" x1="101.106" y1="-359.5161" x2="101.059" y2="-359.4066" gradientTransform="matrix(800 0 0 800 -80761 287659)">
		<stop  offset="0" style="stop-color:#37AEE2"/>
		<stop  offset="1" style="stop-color:#1E96C8"/>
	</linearGradient>
	<circle display="inline" fill="url(#SVGID_1_)" cx="101.658" cy="97.686" r="75"/>
	<path display="inline" fill="#C8DAEA" d="M87.91,132.062c-2.431,0-2.02-0.919-2.855-3.23l-7.147-23.515l55-32.631"/>
	<path display="inline" fill="#A9C9DD" d="M87.91,132.062c1.873,0,2.703-0.86,3.75-1.877l9.998-9.722l-12.475-7.521"/>
	
		<linearGradient id="SVGID_2_" gradientUnits="userSpaceOnUse" x1="100.3613" y1="-360.0498" x2="100.3974" y2="-359.981" gradientTransform="matrix(434.9758 0 0 364.832 -43547.8281 131457.2969)">
		<stop  offset="0" style="stop-color:#EFF7FC"/>
		<stop  offset="1" style="stop-color:#FFFFFF"/>
	</linearGradient>
	<path display="inline" fill="url(#SVGID_2_)" d="M89.182,112.944l30.228,22.331c3.45,1.901,5.939,0.916,6.797-3.204l12.302-57.978
		c1.261-5.049-1.924-7.34-5.225-5.841L61.042,96.11c-4.933,1.977-4.903,4.727-0.9,5.951l18.541,5.787l42.92-27.077
		c2.025-1.227,3.887-0.568,2.358,0.786"/>
</g>
<g id="slack" display="none">
	<g display="inline">
		<g>
			<g>
				<path fill="#E01E5A" d="M57.154,119.361c0,8.712-7.041,15.752-15.751,15.752c-8.711,0-15.752-7.041-15.752-15.752
					c0-8.712,7.041-15.753,15.752-15.753h15.751V119.361z"/>
				<path fill="#E01E5A" d="M65.03,119.361c0-8.712,7.041-15.753,15.752-15.753c8.711,0,15.751,7.041,15.751,15.753v39.379
					c0,8.711-7.041,15.752-15.751,15.752c-8.711,0-15.752-7.041-15.752-15.752V119.361z"/>
			</g>
			<g>
				<path fill="#36C5F0" d="M80.782,56.116c-8.711,0-15.752-7.041-15.752-15.752s7.041-15.752,15.752-15.752
					c8.711,0,15.751,7.041,15.751,15.752v15.752H80.782z"/>
				<path fill="#36C5F0" d="M80.782,64.111c8.711,0,15.751,7.041,15.751,15.752c0,8.71-7.041,15.751-15.751,15.751H41.283
					c-8.711,0-15.752-7.041-15.752-15.751c0-8.711,7.041-15.752,15.752-15.752H80.782z"/>
			</g>
			<g>
				<path fill="#2EB67D" d="M143.908,79.863c0-8.711,7.042-15.752,15.752-15.752c8.711,0,15.751,7.041,15.751,15.752
					c0,8.71-7.041,15.751-15.751,15.751h-15.752V79.863z"/>
				<path fill="#2EB67D" d="M136.033,79.863c0,8.71-7.041,15.751-15.751,15.751c-8.711,0-15.752-7.041-15.752-15.751V40.364
					c0-8.711,7.041-15.752,15.752-15.752c8.71,0,15.751,7.041,15.751,15.752V79.863z"/>
			</g>
			<g>
				<path fill="#ECB22E" d="M120.281,142.99c8.71,0,15.751,7.04,15.751,15.75c0,8.711-7.041,15.752-15.751,15.752
					c-8.711,0-15.752-7.041-15.752-15.752v-15.75H120.281z"/>
				<path fill="#ECB22E" d="M120.281,135.113c-8.711,0-15.752-7.041-15.752-15.752c0-8.712,7.041-15.753,15.752-15.753h39.498
					c8.711,0,15.752,7.041,15.752,15.753c0,8.712-7.041,15.752-15.752,15.752H120.281z"/>
			</g>
		</g>
	</g>
</g>
<g id="twilio" display="none">
	<path display="inline" fill="#F22F46" d="M96.786,80.251c0,9.068-7.467,16.533-16.533,16.533s-16.534-7.465-16.534-16.533
		c0-9.066,7.468-16.533,16.534-16.533S96.786,71.185,96.786,80.251z M80.252,103.186c-9.066,0-16.534,7.465-16.534,16.532
		s7.468,16.535,16.534,16.535s16.533-7.468,16.533-16.535S89.319,103.186,80.252,103.186z M179.985,99.985c0,44.266-35.733,80-80,80
		s-80-35.733-80-80c0-44.269,35.733-80,80-80S179.985,55.717,179.985,99.985z M158.652,99.985c0-32.535-26.133-58.667-58.667-58.667
		S41.319,67.451,41.319,99.985c0,32.534,26.133,58.666,58.667,58.666S158.652,132.519,158.652,99.985z M119.719,103.186
		c-9.067,0-16.534,7.465-16.534,16.532s7.466,16.535,16.534,16.535c9.066,0,16.533-7.468,16.533-16.535
		S128.786,103.186,119.719,103.186z M119.719,63.718c-9.067,0-16.534,7.466-16.534,16.533c0,9.068,7.466,16.533,16.534,16.533
		c9.066,0,16.533-7.465,16.533-16.533C136.252,71.185,128.786,63.718,119.719,63.718z"/>
</g>
<g id="eos">
	<path fill="#4D4D4D" d="M135.009,75.68l-33.552-50.378L70.166,75.73l-14.248,70.007l46.674,29.564l46.676-29.564L135.009,75.68z
		 M131.551,88.993l10.965,53.865l-34.587,21.908L131.551,88.993z M101.636,36.477l27.215,40.864L102.59,161.57L76.313,77.282
		L101.636,36.477z M73.631,88.992l23.626,75.774L62.67,142.857L73.631,88.992z"/>
</g>
</svg>
